<svg width="50" height="50" viewBox="0 0 50 50" fill="none" xmlns="http://www.w3.org/2000/svg">
<path d="M10.3692 0.185547C10.1436 0.371094 10.1338 0.429688 10.1044 2.00195C10.075 3.47656 10.0553 3.62305 9.90823 3.56445C9.34919 3.34961 7.36801 2.71484 6.7207 2.54883C6.20089 2.41211 5.88704 2.38281 5.73992 2.44141C5.62223 2.48047 4.97492 3.06641 4.30799 3.74023L3.10163 4.96094L2.5622 4.7168C1.63046 4.29688 0.74776 4.56055 0.25737 5.41992L0.0317913 5.81055L0.00236796 21.2305C-0.00743983 31.3477 0.0121757 36.8359 0.0808302 37.1875C0.129869 37.4902 0.276986 37.8613 0.404487 38.0176C0.65949 38.3496 19.6866 49.0625 20.3241 49.2285C20.5399 49.2871 20.8341 49.3066 20.9812 49.2773C21.1774 49.2383 21.2951 49.2871 21.4716 49.4824C21.9228 49.9707 22.1287 50 24.9926 50C27.8467 50 28.0624 49.9707 28.5038 49.4824C28.6901 49.2871 28.798 49.248 29.0923 49.2871C29.2884 49.3066 29.6121 49.2676 29.8082 49.1992C29.9946 49.1309 34.4767 46.6504 39.7435 43.7012C46.6286 39.8438 49.4042 38.2422 49.5709 38.0273C49.6984 37.8613 49.8455 37.4902 49.9044 37.207C50.0319 36.5332 50.0319 33.3594 49.9044 32.9004C49.6984 32.168 48.7373 32.168 48.5313 32.9004C48.4822 33.0957 48.4332 34.1309 48.4332 35.2051V37.1582L38.8804 42.5C33.6333 45.4492 29.2786 47.8516 29.2198 47.8516C29.1609 47.8516 29.0923 47.7539 29.0628 47.6367C29.0334 47.5098 29.0236 40.4883 29.0334 32.0312L29.0628 16.6602L38.6156 11.2988C43.8726 8.35938 48.2272 5.9668 48.3057 5.99609C48.4038 6.03516 48.4332 8.125 48.4528 17.334L48.4822 28.6328L48.7569 28.8672C49.1001 29.1602 49.3355 29.1602 49.6788 28.8672L49.9534 28.6328V17.2168V5.81055L49.7278 5.41992C49.2374 4.56055 48.3547 4.29688 47.423 4.7168L46.8836 4.96094L45.6772 3.74023C45.0103 3.06641 44.363 2.48047 44.2453 2.44141C43.9805 2.33398 43.1566 2.53906 41.2735 3.17383C40.5477 3.41797 39.9397 3.61328 39.9299 3.61328C39.9102 3.61328 39.9004 2.95898 39.9004 2.1582C39.9004 0.556641 39.8318 0.253906 39.4493 0.078125C39.1256 -0.0683594 38.6647 0.078125 36.811 0.966797C32.7604 2.91016 29.4453 5.69336 27.1699 9.08203C26.5618 10 25.3555 12.2852 25.179 12.8906C25.0416 13.3496 24.9436 13.3887 24.8455 13.0176C24.7376 12.5879 23.8549 10.7812 23.3057 9.87305C21.6776 7.16797 19.0393 4.48242 16.2146 2.64648C14.5571 1.58203 11.3304 0 10.7909 0C10.683 0 10.4967 0.0878906 10.3692 0.185547ZM12.674 2.33398C16.3519 4.11133 19.4414 6.72852 21.5501 9.85352C21.8639 10.3125 22.217 10.8887 22.3347 11.1133C22.5505 11.5234 22.521 11.5137 21.6874 10.7129C20.7066 9.75586 19.0589 8.4082 18.5587 8.14453C18.2448 7.97852 18.1958 7.97852 17.9506 8.10547C17.627 8.29102 17.4308 8.67188 17.5093 8.96484C17.5387 9.0918 18.0095 9.53125 18.6077 9.98047C20.4124 11.3672 22.8937 13.9453 23.6587 15.2344L23.8353 15.5469L22.8251 15.5078L21.8051 15.4785L13.2723 10.7031C8.58418 8.07617 4.67087 5.86914 4.59241 5.79102C4.47472 5.68359 4.5728 5.54688 5.31819 4.79492L6.19108 3.92578L6.83839 4.11133C8.55476 4.58984 10.5065 5.3418 12.5269 6.30859C13.3508 6.70898 14.1256 7.03125 14.2335 7.03125C14.7729 7.03125 15.1064 6.18164 14.7239 5.80078C14.5473 5.625 11.8306 4.29688 11.654 4.29688C11.5952 4.29688 11.5559 3.81836 11.5559 3.07617C11.5559 2.40234 11.5854 1.85547 11.6148 1.85547C11.654 1.85547 12.1248 2.07031 12.674 2.33398ZM38.4293 3.04688V4.24805L37.2719 4.76562C34.0942 6.17188 30.7498 8.37891 28.4548 10.5859C27.4642 11.5234 27.4249 11.5527 27.6407 11.1328C28.2292 9.98047 29.4355 8.36914 30.6811 7.08984C32.0444 5.68359 33.3292 4.6582 35.1437 3.51562C35.8106 3.0957 38.2135 1.85547 38.3606 1.85547C38.3998 1.85547 38.4293 2.39258 38.4293 3.04688ZM45.3928 5.79102C45.3143 5.86914 41.4108 8.07617 36.7129 10.7031L28.1801 15.4785L27.1601 15.5078L26.1499 15.5469L26.3265 15.2344C26.7482 14.5215 28.1801 12.8613 29.2884 11.7969C32.4858 8.73047 36.9777 6.13281 41.9405 4.50195C42.7349 4.23828 43.4705 4.00391 43.5784 3.98438C43.7255 3.94531 44.0099 4.16992 44.6572 4.79492C45.4222 5.54688 45.5203 5.68359 45.3928 5.79102ZM11.3696 11.3086L20.9224 16.6504L20.9518 32.1973C20.9714 46.25 20.9616 47.7344 20.8145 47.793C20.7164 47.832 17.117 45.8691 11.1146 42.5L1.552 37.1582V21.6211C1.552 13.0762 1.58142 6.05469 1.62065 6.02539C1.65008 5.98633 1.71873 5.95703 1.75796 5.95703C1.79719 5.95703 6.12243 8.35938 11.3696 11.3086ZM27.523 17.9883L27.5524 18.9453H24.9926H22.4426V18.0371C22.4426 17.5293 22.472 17.0898 22.5112 17.0508C22.5505 17.0215 23.6784 17.002 25.0318 17.0117L27.4936 17.041L27.523 17.9883ZM27.5426 21.2891V22.168H24.9926H22.4426V21.2891V20.4102H24.9926H27.5426V21.2891ZM27.5426 32.7637V41.8945H24.9926H22.4426V32.7637V23.6328H24.9926H27.5426V32.7637ZM27.5426 44.2383V45.1172H24.9926H22.4426V44.2383V43.3594H24.9926H27.5426V44.2383ZM27.523 47.5293L27.4936 48.4863H24.9926H22.4916L22.4622 47.5293L22.4328 46.582H24.9926H27.5524L27.523 47.5293Z" fill="url(#paint0_linear_26_432)"/>
<path d="M24.512 27.8223C24.4042 27.9297 24.2963 28.2031 24.257 28.4375C24.2276 28.6719 24.208 30.7812 24.2276 33.1348L24.257 37.4219L24.5317 37.6562C24.8749 37.9492 25.1103 37.9492 25.4536 37.6562L25.7282 37.4219L25.7576 33.1348C25.7773 30.7812 25.7576 28.6719 25.7282 28.4375C25.6498 27.9199 25.3849 27.6367 24.9926 27.6367C24.8357 27.6367 24.6101 27.7246 24.512 27.8223Z" fill="url(#paint1_linear_26_432)"/>
<path d="M38.5175 16.6113C34.7219 18.7695 31.5148 20.6348 31.3971 20.7715C31.1715 21.0059 31.1715 21.0449 31.1715 23.623C31.1715 26.2305 31.1715 26.2402 31.3971 26.4453C31.5246 26.5625 31.7404 26.6602 31.8875 26.6602C32.2013 26.6602 45.8145 18.9551 46.1578 18.5938C46.3736 18.3496 46.3736 18.3105 46.3736 15.7617V13.1738L46.1284 12.9395C46.0009 12.8027 45.7851 12.6953 45.6576 12.6953C45.5301 12.6953 42.323 14.4531 38.5175 16.6113ZM44.9024 16.2305V17.7246L38.7725 21.2109L32.6427 24.6973V23.1641L32.6525 21.6309L38.7039 18.1934C42.0287 16.3086 44.7847 14.7559 44.8338 14.7559C44.873 14.7461 44.9024 15.4199 44.9024 16.2305Z" fill="url(#paint2_linear_26_432)"/>
<defs>
<linearGradient id="paint0_linear_26_432" x1="25" y1="50" x2="25" y2="0" gradientUnits="userSpaceOnUse">
<stop stop-color="#CB328F"/>
<stop offset="0.2" stop-color="#CB328F"/>
<stop offset="0.4" stop-color="#97238A"/>
<stop offset="0.6" stop-color="#5456AB"/>
<stop offset="0.8" stop-color="#219DDE"/>
<stop offset="1" stop-color="#22DCD9"/>
</linearGradient>
<linearGradient id="paint1_linear_26_432" x1="24.9926" y1="37.876" x2="24.9926" y2="27.6367" gradientUnits="userSpaceOnUse">
<stop stop-color="#CB328F"/>
<stop offset="0.2" stop-color="#CB328F"/>
<stop offset="0.4" stop-color="#97238A"/>
<stop offset="0.6" stop-color="#5456AB"/>
<stop offset="0.8" stop-color="#219DDE"/>
<stop offset="1" stop-color="#22DCD9"/>
</linearGradient>
<linearGradient id="paint2_linear_26_432" x1="38.7725" y1="26.6602" x2="38.7725" y2="12.6953" gradientUnits="userSpaceOnUse">
<stop stop-color="#CB328F"/>
<stop offset="0.2" stop-color="#CB328F"/>
<stop offset="0.4" stop-color="#97238A"/>
<stop offset="0.6" stop-color="#5456AB"/>
<stop offset="0.8" stop-color="#219DDE"/>
<stop offset="1" stop-color="#22DCD9"/>
</linearGradient>
</defs>
</svg>
