<svg width="50" height="50" viewBox="0 0 50 50" fill="none" xmlns="http://www.w3.org/2000/svg">
<path d="M22.8071 0.107574C19.8406 0.400589 16.6202 1.45544 14.0296 2.96935C7.27388 6.92504 3.29153 14.2211 3.85028 21.6246C4.11441 25.2482 5.09984 28.1979 7.05038 31.2257C7.36531 31.714 7.61929 32.1438 7.61929 32.1731C7.61929 32.2024 7.50754 32.2317 7.37547 32.2317C6.94879 32.2317 5.77034 32.6322 4.86618 33.0717C2.40769 34.2926 0.609543 36.6855 0.11175 39.4008C0.0507952 39.7329 0 41.3444 0 43.0732C0 46.1303 0 46.1694 0.233658 46.5015C0.355567 46.6871 0.619702 46.9117 0.812724 47.0094C1.19877 47.195 19.6273 49.6953 22.2483 49.92C27.0535 50.3204 32.3566 49.207 36.7148 46.8726C39.4984 45.3783 42.9118 42.7802 46.9043 39.1078C48.8955 37.2715 49.4543 36.5878 49.7793 35.5818C50.7952 32.427 48.1641 29.2137 44.7405 29.4188C44.3239 29.4481 43.9887 29.4578 43.9887 29.4481C43.9887 29.4383 44.1411 29.1062 44.3341 28.7058C46.8332 23.4901 46.8027 17.288 44.263 11.9649C40.4838 4.01443 31.7877 -0.791 22.8071 0.107574ZM27.5818 3.18422C36.5523 4.48325 43.0744 11.7402 43.0744 20.4428C43.0744 23.0897 42.5359 25.3947 41.3473 27.7974C40.3416 29.8387 39.153 31.421 37.4767 32.9545C35.4246 34.8298 33.3217 36.0506 30.6092 36.9297C29.766 37.2032 27.8358 37.6427 27.7748 37.5743C27.7545 37.5548 28.1304 37.3692 28.6282 37.1739C29.8168 36.6757 30.3654 36.3241 31.0054 35.66C32.0924 34.5367 32.5598 33.2865 32.4785 31.7433C32.4277 30.7276 32.194 30.0048 31.6658 29.1648C31.3813 28.7253 31.3711 28.6667 31.4829 28.3834C32.0213 27.1137 32.1839 25.2775 31.8486 24.0761C31.2492 21.8492 29.3393 19.9056 27.1247 19.2316L26.5659 19.0656L26.5354 15.3443C26.5253 13.303 26.5456 11.623 26.5964 11.623C26.7793 11.623 27.6123 12.2091 27.978 12.5997C28.5165 13.176 28.8314 13.9183 28.9431 14.8657C29.0041 15.3834 29.1057 15.7448 29.2377 15.9108C29.9082 16.7703 31.2899 16.7312 31.8385 15.8327C31.9908 15.5787 32.0315 15.3345 32.0213 14.7876C31.9604 12.0626 29.9489 9.53287 27.0942 8.60499L26.5659 8.42918L26.5151 7.46223C26.4542 6.36831 26.2815 6.00693 25.6618 5.72368C24.9811 5.41113 24.1785 5.60648 23.7417 6.1925C23.5588 6.43668 23.508 6.67109 23.4674 7.46223L23.4166 8.42918L22.8883 8.60499C20.9683 9.23008 19.3225 10.6561 18.5403 12.3556C18.1339 13.2444 17.9612 14.0453 17.9612 15.0904C17.9612 17.3173 18.9365 19.1633 20.8768 20.5795C21.4153 20.9702 22.421 21.4488 23.0001 21.5953L23.4674 21.7027V24.7012V27.6997L22.7867 28.0221L22.1061 28.3444L21.9131 28.11C21.4965 27.6118 21.1207 26.6937 21.0394 25.9319C20.9378 25.1017 20.7753 24.8087 20.2165 24.4375C19.4139 23.9199 18.266 24.3887 17.9917 25.3459C17.7783 26.1077 18.2761 28.1783 18.9161 29.1355C19.0889 29.3895 19.2006 29.6239 19.1701 29.6532C19.1396 29.6825 17.9815 30.2294 16.5999 30.8741L14.0703 32.0364H12.7902H11.5102L11.0023 31.421C10.1489 30.3955 9.59014 29.5946 9.00092 28.5202C7.58881 25.9417 6.90815 23.2948 6.90815 20.3939C6.91831 13.0295 11.7337 6.46598 18.9466 3.9949C21.6896 3.05725 24.7271 2.77401 27.5818 3.18422ZM23.4674 15.0904C23.4674 16.995 23.4471 18.5577 23.4166 18.5577C23.2642 18.5577 22.7055 18.2159 22.3499 17.9131C20.4197 16.2331 20.6737 13.2346 22.8477 11.8965C23.1017 11.75 23.3455 11.623 23.3861 11.623C23.4268 11.623 23.4674 13.1858 23.4674 15.0904ZM27.8053 23.0506C28.4555 23.6561 28.872 24.545 28.933 25.4338C28.9838 26.303 28.8111 27.0063 28.5672 26.9086C28.3031 26.8109 27.3177 26.6644 26.9012 26.6644H26.5151V24.4082V22.1618L26.9316 22.3767C27.1551 22.5036 27.5513 22.8064 27.8053 23.0506ZM27.9171 29.8485C28.8212 30.2099 29.4003 31.0596 29.4003 32.0364C29.4003 32.7982 29.1463 33.3354 28.5774 33.7944C28.3336 33.9898 26.5862 34.7809 23.8738 35.9139C21.4965 36.9102 19.4343 37.8087 19.2717 37.9162C18.4184 38.5022 18.5098 39.8501 19.4546 40.4068C19.739 40.5728 20.1048 40.5826 25.6516 40.5826C29.827 40.5826 31.7572 40.5435 32.2651 40.4654C34.5408 40.0845 36.7758 39.1078 38.3504 37.799C38.6349 37.5743 39.986 36.3339 41.3575 35.0642C42.729 33.7847 44.009 32.6615 44.1919 32.5735C44.6287 32.3587 45.4617 32.3489 45.8681 32.554C46.7824 33.0033 47.1583 34.0386 46.7418 34.9177C46.4472 35.5428 42.5969 39.0199 39.7727 41.2077C36.5523 43.6983 34.2563 44.968 31.2391 45.9252C28.6688 46.7359 26.5558 47.0289 23.5893 46.9508C21.588 46.9019 21.0394 46.8433 12.394 45.6713C7.39579 44.9973 3.24074 44.4406 3.17978 44.4406C2.98676 44.4406 3.00708 40.6119 3.2001 39.7036C3.56583 38.0431 4.76459 36.4706 6.24782 35.7283C7.43642 35.1423 7.47706 35.1325 11.2765 35.0739L14.7814 35.0153L19.9219 32.6517C22.7563 31.3429 25.357 30.1513 25.7126 29.9853C26.4643 29.6434 27.2872 29.5946 27.9171 29.8485Z" fill="url(#paint0_linear_26_429)"/>
<defs>
<linearGradient id="paint0_linear_26_429" x1="25" y1="50.0001" x2="25" y2="0.00012207" gradientUnits="userSpaceOnUse">
<stop stop-color="#CB328F"/>
<stop offset="0.2" stop-color="#CB328F"/>
<stop offset="0.4" stop-color="#97238A"/>
<stop offset="0.6" stop-color="#5456AB"/>
<stop offset="0.8" stop-color="#219DDE"/>
<stop offset="1" stop-color="#22DCD9"/>
</linearGradient>
</defs>
</svg>
