<svg width="50" height="46" viewBox="0 0 50 46" fill="none" xmlns="http://www.w3.org/2000/svg">
<path d="M23.3168 0.0301437C23.1782 0.0480118 22.6733 0.110546 22.1782 0.164143C20.1881 0.387478 17.4455 1.19147 15.604 2.09374C10.2574 4.72013 6.42574 9.47264 5.46535 14.6718L5.33663 15.3865L4.14851 15.4401C3.26733 15.4758 2.82178 15.5384 2.39604 15.6902C1.59406 15.9761 0.742574 16.7086 0.326733 17.468L0 18.0665V22.5778V27.0891L0.267327 27.5983C0.574257 28.1968 1.28713 28.9115 1.87129 29.2242C2.71287 29.6619 3.16832 29.7244 5.73267 29.7244C8.41584 29.7244 8.62376 29.6798 8.9802 29.0902C9.14851 28.8043 9.15842 28.4202 9.15842 22.5778C9.15842 15.5652 9.19802 15.9314 8.39604 15.5652L8 15.3865L8.21782 14.4932C9.70297 8.58825 14.8416 4.05013 21.5644 2.728C22.4554 2.54934 22.8614 2.53147 24.9505 2.53147C27.5644 2.53147 28.2871 2.6208 30.2673 3.19254C31.5347 3.5588 33.7723 4.58613 34.8911 5.30973C38.2376 7.47158 40.6832 10.7322 41.6436 14.3145C41.901 15.3061 41.8911 15.449 41.5149 15.6098C41.3465 15.6902 41.1287 15.8868 41.0198 16.0565C40.8515 16.3513 40.8416 16.7086 40.8416 22.5599C40.8416 28.036 40.8614 28.7954 41 29.0544C41.1683 29.385 41.4653 29.5904 41.8812 29.6887L42.1584 29.7512L42.099 30.6535C41.8119 35.4239 38.2574 39.9084 33.2673 41.7933C32.4554 42.0971 30.6832 42.5884 30.3861 42.5884C30.3168 42.5884 30.2574 42.3472 30.2277 41.9809C30.1386 40.9447 29.4455 40.0067 28.3861 39.5421C27.9505 39.3456 27.7921 39.3277 25.8416 39.3009C23.9109 39.2741 23.7129 39.2831 23.198 39.4617C22.4554 39.7119 21.7129 40.3193 21.3663 40.9625C21.1287 41.4003 21.0891 41.5789 21.0891 42.2311C21.0891 42.8832 21.1287 43.0619 21.3663 43.4996C21.7129 44.1428 22.4554 44.7503 23.198 45.0004C23.7426 45.188 23.8812 45.1969 26.8812 45.1523C30.3762 45.1076 30.9208 45.0451 33.1287 44.3751C39.703 42.4008 44.3168 36.9694 44.7624 30.6624L44.8317 29.7423L45.9307 29.7066C46.7426 29.6708 47.1782 29.6083 47.604 29.4654C48.396 29.1884 49.2574 28.447 49.6733 27.6877L50 27.0891V22.5778V18.0665L49.6733 17.468C49.2673 16.7086 48.4059 15.9761 47.604 15.6902C47.1485 15.5294 46.7723 15.4848 45.8119 15.449C45.0099 15.4222 44.5743 15.3776 44.5545 15.3061C44.5347 15.2525 44.4455 14.8237 44.3564 14.3592C43.9901 12.5636 42.9604 10.1694 41.8614 8.55252C38.8119 4.08587 33.8218 1.06641 28.0693 0.199879C27.1782 0.065876 23.8614 -0.0591888 23.3168 0.0301437ZM6.48515 22.5778V27.3125H5C3.25743 27.3125 3.0099 27.241 2.71287 26.6603C2.54455 26.3119 2.52475 26.0261 2.52475 22.6046C2.52475 18.5042 2.54455 18.3523 3.15842 18.0129C3.42574 17.87 3.67327 17.8432 4.9802 17.8432H6.48515V22.5778ZM46.7921 17.9861C46.9703 18.0665 47.1683 18.2719 47.2871 18.4953C47.4554 18.8437 47.4752 19.1295 47.4752 22.551C47.4752 26.6603 47.4554 26.7854 46.8317 27.1338C46.5446 27.2946 46.3465 27.3125 45.0099 27.3125H43.5149V22.5778V17.8432H45C46.1683 17.8432 46.5644 17.87 46.7921 17.9861ZM27.4356 41.8023C27.6535 41.9988 27.6535 42.4633 27.4356 42.6599C27.297 42.7849 27.0297 42.8207 25.8317 42.8385C24.2376 42.8743 23.8515 42.7939 23.7525 42.4455C23.6634 42.1239 23.7822 41.8291 24.0297 41.7129C24.1782 41.6504 24.802 41.6147 25.7624 41.6325C27.0297 41.6504 27.297 41.6772 27.4356 41.8023Z" fill="url(#paint0_linear_26_494)"/>
<path d="M23.1386 4.80947C21.4356 5.01494 19.198 5.7028 17.8218 6.4264C16.5643 7.0964 15.8515 7.59667 14.7525 8.5972C12.2673 10.8395 10.8911 13.4837 10.5445 16.6729C10.4158 17.8521 10.4257 24.8915 10.5544 26.1422C11.1584 31.9488 15.7921 36.5942 22.2277 37.827C23.4257 38.0592 26.5742 38.0592 27.7723 37.827C29.8713 37.425 32.0693 36.5495 33.6238 35.4864C36.9802 33.2174 39.0594 29.8763 39.4455 26.1422C39.5742 24.8915 39.5842 17.8521 39.4554 16.6729C39.0594 12.9834 37.1188 9.75853 33.9604 7.5252C32.1089 6.22094 30.198 5.41694 27.8713 4.97028C26.7624 4.76481 24.2475 4.67548 23.1386 4.80947ZM27.0396 7.2572C32.1584 8.07013 36.1386 11.84 36.7822 16.5032C36.8614 17.0928 36.8812 18.7365 36.8614 21.9525L36.8218 26.5531L36.5544 27.4465C36.1386 28.8579 35.7426 29.6887 34.9505 30.8054C33.6832 32.5742 31.6139 34.1196 29.4554 34.8968C23.703 36.9604 17.1485 34.7271 14.3762 29.7602C13.9901 29.0634 13.7327 28.4381 13.4455 27.4465L13.1782 26.5531L13.1386 21.9525C13.099 16.9945 13.1485 16.253 13.5842 14.8952C14.4851 12.0633 16.6832 9.64239 19.5247 8.3024C20.4851 7.85573 21.8317 7.43587 22.8812 7.26613C23.9406 7.0964 25.9604 7.08747 27.0396 7.2572Z" fill="url(#paint1_linear_26_494)"/>
<path d="M20.1386 28.9121C19.7822 29.2247 19.7525 29.2962 19.7525 29.7338C19.7525 30.2072 19.7624 30.2251 20.3763 30.7521C21.0891 31.3684 22.0297 31.8418 23.1188 32.1454C23.7129 32.3151 24.0891 32.3598 25 32.3598C25.9109 32.3598 26.2872 32.3151 26.8812 32.1454C27.9901 31.8418 28.9307 31.3594 29.6337 30.7521C30.2377 30.2162 30.2476 30.1983 30.2476 29.7338C30.2476 29.2962 30.2178 29.2247 29.8614 28.9121C29.5149 28.5995 29.4258 28.5638 28.9802 28.5638C28.5446 28.5638 28.4159 28.6084 27.9505 28.9478C27.2079 29.4837 26.9802 29.5999 26.2971 29.8142C25.505 30.0554 24.4951 30.0554 23.703 29.8142C23.0198 29.5999 22.7921 29.4837 22.0495 28.9478C21.5842 28.6084 21.4555 28.5638 21.0198 28.5638C20.5743 28.5638 20.4852 28.5995 20.1386 28.9121Z" fill="url(#paint2_linear_26_494)"/>
<defs>
<linearGradient id="paint0_linear_26_494" x1="25" y1="45.1746" x2="25" y2="2.28882e-05" gradientUnits="userSpaceOnUse">
<stop stop-color="#CB328F"/>
<stop offset="0.2" stop-color="#CB328F"/>
<stop offset="0.4" stop-color="#97238A"/>
<stop offset="0.6" stop-color="#5456AB"/>
<stop offset="0.8" stop-color="#219DDE"/>
<stop offset="1" stop-color="#22DCD9"/>
</linearGradient>
<linearGradient id="paint1_linear_26_494" x1="25" y1="38.0012" x2="25" y2="4.74591" gradientUnits="userSpaceOnUse">
<stop stop-color="#CB328F"/>
<stop offset="0.2" stop-color="#CB328F"/>
<stop offset="0.4" stop-color="#97238A"/>
<stop offset="0.6" stop-color="#5456AB"/>
<stop offset="0.8" stop-color="#219DDE"/>
<stop offset="1" stop-color="#22DCD9"/>
</linearGradient>
<linearGradient id="paint2_linear_26_494" x1="25" y1="32.3598" x2="25" y2="28.5638" gradientUnits="userSpaceOnUse">
<stop stop-color="#CB328F"/>
<stop offset="0.2" stop-color="#CB328F"/>
<stop offset="0.4" stop-color="#97238A"/>
<stop offset="0.6" stop-color="#5456AB"/>
<stop offset="0.8" stop-color="#219DDE"/>
<stop offset="1" stop-color="#22DCD9"/>
</linearGradient>
</defs>
</svg>
