<svg width="50" height="50" viewBox="0 0 50 50" fill="none" xmlns="http://www.w3.org/2000/svg">
<path d="M10.1601 0.0940685C9.78891 0.277805 9.60329 0.495995 8.6752 1.95442C7.65918 3.56213 7.12187 4.81384 6.77994 6.35265C6.1547 9.24653 6.49663 12.3127 7.7178 14.8161C8.26489 15.9415 9.54468 17.8707 9.96476 18.2038L10.2969 18.4679L13.9604 18.4334L17.6337 18.399L18.1906 18.0889C18.8354 17.7329 19.4411 17.0439 19.7537 16.2975C19.9588 15.7922 19.9784 15.597 20.0077 13.3692L20.037 10.992H24.189H28.3312V13.105C28.3312 15.1032 28.341 15.2295 28.5559 15.597C29.1714 16.6764 30.4414 16.6075 31.0178 15.4592C31.1936 15.1147 31.2132 14.8161 31.2425 13.0246L31.2816 10.992H32.2487H33.2159V12.1289C33.2159 13.105 33.2452 13.3003 33.4406 13.6448C34.0561 14.7242 35.3261 14.6553 35.9025 13.507C36.0393 13.2314 36.0979 12.8524 36.1272 12.06L36.1663 10.992H37.1334H38.1006V12.7605C38.1006 14.3912 38.1201 14.5405 38.3253 14.908C38.7551 15.6774 39.6442 15.9185 40.2499 15.4362C40.924 14.8965 40.9826 14.7242 41.0216 12.7605L41.051 10.992H41.559C42.6043 10.992 43.2784 10.5442 43.4933 9.71736C43.6789 8.97092 43.4054 8.12113 42.8583 7.74217C42.6922 7.63882 40.1033 7.59289 31.3597 7.54695L20.0761 7.48953L20.0272 5.07797C19.9784 2.86163 19.9588 2.62047 19.7537 2.13816C19.4508 1.41469 18.8061 0.679733 18.171 0.32374L17.6337 0.0251656L14.0191 0.00219917C11.7526 -0.00928497 10.3165 0.0251656 10.1601 0.0940685ZM17.0476 9.21208V14.9539L14.2144 14.9769L11.3813 15.0113L10.9319 14.2878C9.81822 12.5423 9.43721 11.2447 9.43721 9.2695C9.42744 7.25986 9.82799 5.89331 10.8929 4.19373L11.3813 3.42432L14.2144 3.44729L17.0476 3.47026V9.21208Z" fill="url(#paint0_linear_26_431)"/>
<path d="M12.9347 7.66171C12.6709 7.78803 12.2313 8.40815 12.1531 8.76414C12.0261 9.33833 12.1824 9.96993 12.5341 10.3833C13.345 11.348 14.615 10.946 14.9569 9.62542C15.0644 9.20052 15.0546 9.08569 14.8885 8.60337C14.6443 7.90287 14.1949 7.54688 13.5892 7.55836C13.345 7.55836 13.0519 7.6043 12.9347 7.66171Z" fill="url(#paint1_linear_26_431)"/>
<path d="M20.5646 21.2125C18.8452 21.3847 17.1453 22.0163 15.7287 22.9924C14.8006 23.6355 13.5306 24.8298 13.0519 25.5073L12.6807 26.0356L12.4853 25.7485C12.2215 25.3466 11.8014 25.1169 11.352 25.1169C10.8049 25.1169 0.840168 29.1477 0.517778 29.5037C0.195388 29.8596 0 30.3075 0 30.7209C0 30.9047 1.1821 35.1306 2.63774 40.1145C5.08985 48.5435 5.29501 49.1981 5.60763 49.5426C6.18402 50.1742 6.46734 50.1627 8.30398 49.4393C14.7811 46.8669 17.1551 45.8678 17.37 45.6382C17.7705 45.2018 17.9073 44.7654 17.8487 44.1223L17.7998 43.5252L19.5681 43.4448C20.545 43.4103 22.9092 43.3185 24.8143 43.2611C29.7087 43.0888 31.7603 42.951 32.7763 42.6984C34.9646 42.1701 37.0651 41.0677 39.1069 39.3796C44.5875 34.8665 48.378 31.6166 48.7981 31.0654C50.7813 28.5046 50.244 24.5312 47.6746 22.7398C46.6 21.9934 44.9099 21.8441 43.7766 22.3953C43.4347 22.5561 41.8716 23.6929 40.3183 24.9102C38.2179 26.5524 37.4656 27.0806 37.4363 26.9543C37.3191 26.5409 36.2054 25.3581 35.629 25.025C34.7009 24.4968 34.2222 24.4279 31.4184 24.4279C28.9956 24.4279 28.8392 24.4164 28.6732 24.1982C28.3996 23.8422 27.1687 22.8776 26.4262 22.4527C24.6482 21.4077 22.6748 20.9943 20.5646 21.2125ZM23.7005 24.8872C24.8631 25.2432 26.0647 26.0356 27.0124 27.0806C27.2859 27.3907 27.6278 27.6892 27.7841 27.7467C27.9502 27.827 29.1616 27.873 30.9885 27.873C34.2515 27.873 34.3687 27.8959 34.8572 28.6424C35.0526 28.9639 35.1112 29.1821 35.1112 29.6529C35.121 30.319 34.9451 30.698 34.4469 31.1343C34.1831 31.364 34.0268 31.3755 29.7087 31.4329L25.2343 31.4903L24.8924 31.8004C24.4723 32.1793 24.2769 32.765 24.3551 33.4196C24.4235 33.9823 24.6579 34.3842 25.1073 34.6713C25.4297 34.878 25.7033 34.878 30.0409 34.855C34.5543 34.8206 34.6423 34.8206 35.1796 34.5565C36.3812 33.9938 37.2995 32.9258 37.7685 31.5707L37.9932 30.9161L41.3538 28.2519C43.6203 26.4605 44.8317 25.5648 45.076 25.5073C45.6133 25.3925 46.1994 25.6452 46.6195 26.1619C47.1764 26.8509 47.235 27.7696 46.7661 28.562C46.473 29.0788 36.7427 37.1977 35.5801 37.8982C34.4762 38.5757 32.9522 39.1729 31.7505 39.4026C31.096 39.5289 28.9565 39.6552 24.4235 39.816C20.9065 39.9423 17.7412 40.0571 17.3895 40.0686L16.7545 40.1031L15.3184 35.1651C14.5271 32.4435 13.8725 30.1582 13.8725 30.0778C13.8628 29.5266 15.6799 27.1265 16.7252 26.3112C18.7182 24.7494 21.4047 24.1982 23.7005 24.8872ZM10.4532 29.0558C10.4532 29.0788 11.3813 32.2597 12.5048 36.1412C13.6381 40.0112 14.5271 43.2266 14.488 43.2725C14.4001 43.3529 7.49312 46.1435 7.47358 46.0975C7.42474 46.0171 3.33136 31.8463 3.3509 31.8348C3.43883 31.7659 10.2383 29.0443 10.336 29.0328C10.3946 29.0213 10.4532 29.0328 10.4532 29.0558Z" fill="url(#paint2_linear_26_431)"/>
<path d="M7.32701 32.6616C5.92999 33.5114 6.53569 36.0608 8.09879 35.877C8.87057 35.7852 9.41766 35.0847 9.41766 34.1889C9.41766 32.9372 8.26487 32.0874 7.32701 32.6616Z" fill="url(#paint3_linear_26_431)"/>
<defs>
<linearGradient id="paint0_linear_26_431" x1="25.0125" y1="18.4679" x2="25.0125" y2="2.28882e-05" gradientUnits="userSpaceOnUse">
<stop stop-color="#CB328F"/>
<stop offset="0.2" stop-color="#CB328F"/>
<stop offset="0.4" stop-color="#97238A"/>
<stop offset="0.6" stop-color="#5456AB"/>
<stop offset="0.8" stop-color="#219DDE"/>
<stop offset="1" stop-color="#22DCD9"/>
</linearGradient>
<linearGradient id="paint1_linear_26_431" x1="13.5684" y1="10.9156" x2="13.5684" y2="7.55809" gradientUnits="userSpaceOnUse">
<stop stop-color="#CB328F"/>
<stop offset="0.2" stop-color="#CB328F"/>
<stop offset="0.4" stop-color="#97238A"/>
<stop offset="0.6" stop-color="#5456AB"/>
<stop offset="0.8" stop-color="#219DDE"/>
<stop offset="1" stop-color="#22DCD9"/>
</linearGradient>
<linearGradient id="paint2_linear_26_431" x1="25" y1="50" x2="25" y2="21.1559" gradientUnits="userSpaceOnUse">
<stop stop-color="#CB328F"/>
<stop offset="0.2" stop-color="#CB328F"/>
<stop offset="0.4" stop-color="#97238A"/>
<stop offset="0.6" stop-color="#5456AB"/>
<stop offset="0.8" stop-color="#219DDE"/>
<stop offset="1" stop-color="#22DCD9"/>
</linearGradient>
<linearGradient id="paint3_linear_26_431" x1="7.98099" y1="35.8865" x2="7.98099" y2="32.4785" gradientUnits="userSpaceOnUse">
<stop stop-color="#CB328F"/>
<stop offset="0.2" stop-color="#CB328F"/>
<stop offset="0.4" stop-color="#97238A"/>
<stop offset="0.6" stop-color="#5456AB"/>
<stop offset="0.8" stop-color="#219DDE"/>
<stop offset="1" stop-color="#22DCD9"/>
</linearGradient>
</defs>
</svg>
