<svg width="50" height="50" viewBox="0 0 50 50" fill="none" xmlns="http://www.w3.org/2000/svg">
<path d="M38.9462 0.186105C38.6234 0.392931 38.506 0.703168 37.9484 2.94722C37.469 4.8707 37.4201 5.30503 37.6843 5.66697C38.0364 6.15301 39.0049 6.10131 39.2691 5.59459C39.4843 5.16025 40.443 1.03409 40.3843 0.785899C40.306 0.423954 39.8071 -3.71933e-05 39.4843 -3.71933e-05C39.3375 -3.71933e-05 39.1028 0.0826926 38.9462 0.186105Z" fill="url(#paint0_linear_26_433)"/>
<path d="M26.444 2.37849C25.8864 2.4819 25.2896 2.79214 24.9277 3.18511C24.7711 3.35057 21.7287 7.41468 18.158 12.213L11.6721 20.9514L7.78839 23.3195C5.65577 24.6122 3.54271 25.9255 3.10249 26.2358C1.67421 27.2182 0.735076 28.5419 0.226376 30.2999C0.0307225 30.9411 -0.00840826 31.2927 0.00137443 32.3681C0.00137443 33.4953 0.0405052 33.7642 0.27529 34.4881C1.26334 37.5595 3.80684 39.5036 6.81991 39.5036C7.52426 39.5036 8.03296 39.4105 9.21666 39.0693C9.28514 39.0486 10.3123 40.817 11.8286 43.5884C14.5874 48.635 14.9102 49.1107 15.9667 49.6587C16.583 49.9793 16.6809 50 17.6493 50C18.5591 50 18.745 49.969 19.2341 49.7208C19.8994 49.4002 20.6722 48.6556 21.0244 48.0352C21.5918 47.001 21.6994 45.6153 21.2885 44.5088C21.1809 44.2296 20.4472 42.8128 19.6548 41.365C18.8624 39.9173 18.1972 38.6867 18.1678 38.6143C18.1483 38.5522 18.7254 38.1386 19.4591 37.6939C20.1831 37.2596 20.8483 36.7942 20.9265 36.6805C21.2102 36.2461 21.1124 35.7808 20.4374 34.5398C19.8211 33.4023 19.733 33.1954 19.8602 33.1954C19.8896 33.1954 23.382 32.4716 27.6179 31.6029C31.844 30.7239 36.2169 29.8139 37.3419 29.5863C38.4571 29.3485 39.4941 29.1003 39.6408 29.0176C40.0908 28.7694 40.7463 28.0352 40.9517 27.5388C41.1963 26.9493 41.2843 26.0393 41.1376 25.4809C41.0789 25.243 40.3843 23.8676 39.6017 22.4302C38.8191 20.9824 38.0462 19.5657 37.8897 19.2658L37.5962 18.7384L38.6723 17.0321C39.2593 16.091 39.768 15.181 39.8071 15.0155C39.8756 14.6432 39.8658 14.6225 38.6136 12.3371C38.1049 11.4064 37.5669 10.5584 37.4299 10.4343C37.1854 10.2275 37.0875 10.2172 36.1875 10.2792C35.6495 10.3102 34.7299 10.3619 34.1332 10.4033L33.0571 10.4654L31.2473 7.12513C30.2494 5.28439 29.2712 3.57808 29.0559 3.34023C28.4103 2.58532 27.3929 2.21303 26.444 2.37849ZM27.5103 4.63288C27.7744 4.83971 39.1615 25.6567 39.2397 26.0807C39.3571 26.7218 38.8875 27.2389 38.1049 27.3216L37.7821 27.3526L31.7755 16.3599C27.1483 7.89038 25.7885 5.32575 25.857 5.19131C25.9744 4.96381 26.4635 4.48811 26.6494 4.41572C26.8646 4.33299 27.2462 4.42606 27.5103 4.63288ZM30.1516 17.5284C33.2234 23.1541 35.7277 27.7663 35.718 27.787C35.669 27.8283 18.6961 31.3444 18.6765 31.3133C18.4906 31.0548 13.5406 21.8614 13.5602 21.8097C13.6482 21.5408 24.4385 7.13547 24.4972 7.20786C24.5363 7.24923 27.0798 11.8925 30.1516 17.5284ZM37.0386 13.5884L37.7136 14.819L37.1462 15.7291C36.8332 16.2358 36.5397 16.6391 36.5006 16.6184C36.4614 16.6081 35.9234 15.6774 35.3071 14.5502C34.0353 12.2337 34.0353 12.4405 35.356 12.3785C35.7571 12.3578 36.1484 12.3475 36.2267 12.3475C36.2951 12.3578 36.6669 12.9059 37.0386 13.5884ZM14.4602 27.7146C15.7808 30.1241 16.8472 32.1096 16.8374 32.12C16.7787 32.182 9.30471 36.7218 8.98188 36.8976C6.13512 38.4281 2.62313 36.577 1.99704 33.2161C1.66443 31.4581 2.39813 29.3795 3.71879 28.2937C4.40358 27.7456 11.9069 23.1644 11.9949 23.2472C12.0243 23.2885 13.1395 25.2947 14.4602 27.7146ZM18.3733 34.8811L18.8135 35.6774L18.5983 35.8221C17.3559 36.6287 17.1406 36.7322 17.0526 36.5977C16.808 36.2151 16.1624 34.9328 16.1917 34.9121C16.4363 34.7053 17.8156 33.9504 17.8548 34.0021C17.8939 34.0434 18.1287 34.4364 18.3733 34.8811ZM16.9646 40.5584C19.6059 45.4085 19.7428 45.7394 19.5276 46.5253C19.0972 48.0041 17.2482 48.5005 16.2504 47.3837C16.0352 47.1355 11.2808 38.5419 11.1536 38.1593C11.1145 38.0455 11.5743 37.7146 12.7384 37.001C13.6384 36.4529 14.3917 35.9979 14.4211 35.9979C14.4504 35.9979 15.595 38.0455 16.9646 40.5584Z" fill="url(#paint1_linear_26_433)"/>
<path d="M12.3373 30.1034C12.0536 30.2792 11.858 30.8066 11.9167 31.1892C12.0341 31.8097 12.7971 32.1613 13.3547 31.8511C13.8732 31.5512 13.9515 30.5998 13.4721 30.1965C13.1982 29.969 12.6308 29.9276 12.3373 30.1034Z" fill="url(#paint2_linear_26_433)"/>
<path d="M8.79595 32.2751C8.58073 32.3992 8.14051 32.6577 7.82746 32.8542C7.51442 33.0507 7.12311 33.2368 6.97637 33.2678C6.61441 33.3402 6.15462 33.1437 5.95897 32.8128C5.75353 32.4922 5.2057 32.244 4.88287 32.3268C4.27635 32.4819 3.9633 33.3712 4.31548 33.9193C4.99048 34.9948 6.09593 35.5119 7.2992 35.3257C7.82746 35.243 9.76443 34.1365 10.146 33.7022C10.5177 33.2782 10.5079 32.7714 10.1264 32.3578C9.77422 31.9855 9.35356 31.9648 8.79595 32.2751Z" fill="url(#paint3_linear_26_433)"/>
<path d="M46.0191 6.02901C42.7321 7.96283 42.8202 7.90078 42.7028 8.34546C42.5267 9.01764 42.9278 9.61743 43.5539 9.61743C44.0723 9.61743 49.58 6.41164 49.8539 5.94628C50.2452 5.28444 49.805 4.4468 49.0713 4.4468C48.7876 4.4468 48.1224 4.78806 46.0191 6.02901Z" fill="url(#paint4_linear_26_433)"/>
<path d="M43.3289 14.4157C42.8788 14.8914 42.9082 15.5739 43.3875 15.9462C43.5245 16.0496 44.5321 16.4012 45.6278 16.7115C47.2224 17.1665 47.7017 17.2595 47.9658 17.1975C48.6604 17.0217 48.9441 16.0703 48.455 15.5532C48.2495 15.3464 47.78 15.1706 46.2245 14.7259C43.9745 14.0951 43.6712 14.0538 43.3289 14.4157Z" fill="url(#paint5_linear_26_433)"/>
<defs>
<linearGradient id="paint0_linear_26_433" x1="38.9559" y1="6.00452" x2="38.9559" y2="-3.71933e-05" gradientUnits="userSpaceOnUse">
<stop stop-color="#CB328F"/>
<stop offset="0.2" stop-color="#CB328F"/>
<stop offset="0.4" stop-color="#97238A"/>
<stop offset="0.6" stop-color="#5456AB"/>
<stop offset="0.8" stop-color="#219DDE"/>
<stop offset="1" stop-color="#22DCD9"/>
</linearGradient>
<linearGradient id="paint1_linear_26_433" x1="20.6045" y1="50" x2="20.6045" y2="2.33972" gradientUnits="userSpaceOnUse">
<stop stop-color="#CB328F"/>
<stop offset="0.2" stop-color="#CB328F"/>
<stop offset="0.4" stop-color="#97238A"/>
<stop offset="0.6" stop-color="#5456AB"/>
<stop offset="0.8" stop-color="#219DDE"/>
<stop offset="1" stop-color="#22DCD9"/>
</linearGradient>
<linearGradient id="paint2_linear_26_433" x1="12.8487" y1="31.9658" x2="12.8487" y2="29.9945" gradientUnits="userSpaceOnUse">
<stop stop-color="#CB328F"/>
<stop offset="0.2" stop-color="#CB328F"/>
<stop offset="0.4" stop-color="#97238A"/>
<stop offset="0.6" stop-color="#5456AB"/>
<stop offset="0.8" stop-color="#219DDE"/>
<stop offset="1" stop-color="#22DCD9"/>
</linearGradient>
<linearGradient id="paint3_linear_26_433" x1="7.2933" y1="35.363" x2="7.2933" y2="32.059" gradientUnits="userSpaceOnUse">
<stop stop-color="#CB328F"/>
<stop offset="0.2" stop-color="#CB328F"/>
<stop offset="0.4" stop-color="#97238A"/>
<stop offset="0.6" stop-color="#5456AB"/>
<stop offset="0.8" stop-color="#219DDE"/>
<stop offset="1" stop-color="#22DCD9"/>
</linearGradient>
<linearGradient id="paint4_linear_26_433" x1="46.3306" y1="9.61743" x2="46.3306" y2="4.4468" gradientUnits="userSpaceOnUse">
<stop stop-color="#CB328F"/>
<stop offset="0.2" stop-color="#CB328F"/>
<stop offset="0.4" stop-color="#97238A"/>
<stop offset="0.6" stop-color="#5456AB"/>
<stop offset="0.8" stop-color="#219DDE"/>
<stop offset="1" stop-color="#22DCD9"/>
</linearGradient>
<linearGradient id="paint5_linear_26_433" x1="45.8545" y1="17.2147" x2="45.8545" y2="14.1867" gradientUnits="userSpaceOnUse">
<stop stop-color="#CB328F"/>
<stop offset="0.2" stop-color="#CB328F"/>
<stop offset="0.4" stop-color="#97238A"/>
<stop offset="0.6" stop-color="#5456AB"/>
<stop offset="0.8" stop-color="#219DDE"/>
<stop offset="1" stop-color="#22DCD9"/>
</linearGradient>
</defs>
</svg>
