<svg width="50" height="50" viewBox="0 0 50 50" fill="none" xmlns="http://www.w3.org/2000/svg">
<path d="M20.2857 0.322701C20.034 0.591518 19.9801 1.03954 19.9801 2.65244C19.9801 3.76355 19.9261 4.65961 19.8542 4.65961C19.7823 4.65961 19.0633 4.01445 18.2544 3.22592C17.4455 2.43739 16.6365 1.79223 16.4568 1.79223C16.0613 1.79223 9.98542 7.81372 9.82364 8.3872C9.71578 8.7277 9.94947 9.05028 11.2797 10.3944L12.8616 12.0073H10.6865C8.83496 12.0073 8.49341 12.061 8.24175 12.3298C7.97211 12.6166 7.93615 13.208 7.93615 16.9893C7.93615 22.4015 7.73842 22.0431 10.7584 22.0431H12.8796L11.3696 23.5485C10.2191 24.6954 9.87756 25.1614 9.87756 25.5377C9.87756 25.9499 10.4528 26.613 12.9155 29.0502C15.4501 31.5771 16.0433 32.0789 16.4748 32.0789C16.9062 32.0789 17.3196 31.7742 18.4881 30.6094L19.9801 29.1219V31.2366C19.9801 33.9785 20.034 34.0502 22.317 34.0502H23.9348V37.0072V39.9642H20.9688H18.0027L17.8949 39.4624C16.9961 35.3764 14.1738 32.6882 10.1472 32.0431C7.81032 31.6846 4.88023 32.5807 3.01073 34.2474C-0.242927 37.1327 -0.961967 42.2043 1.35694 45.8602C3.38823 49.0502 7.57663 50.681 11.2617 49.7312C14.2457 48.9427 16.8523 46.3979 17.6252 43.5126C17.787 42.8853 17.9847 42.276 18.0566 42.1506C18.2724 41.828 31.7184 41.828 31.9701 42.1685C32.06 42.276 32.2397 42.8316 32.3655 43.3871C32.797 45.4122 34.7384 47.8495 36.8056 48.9606C41.1199 51.2903 46.9081 49.4803 49.0473 45.1434C49.7843 43.6739 49.982 42.724 50 40.9319C50 38.4051 49.1731 36.4337 47.3935 34.6416C44.2117 31.4696 39.2324 31.0932 35.6731 33.7814C33.7856 35.1793 32.6891 36.9534 32.1319 39.4624L32.024 39.9642H29.058H26.0919V37.0072V34.0502H27.7098C29.9927 34.0502 30.0466 33.9785 30.0466 31.2366V29.1219L31.5386 30.6094C32.7071 31.7742 33.1205 32.0789 33.552 32.0789C33.9834 32.0789 34.5586 31.595 37.0753 29.0682C38.729 27.4194 40.1312 25.8961 40.2031 25.6631C40.3109 25.3226 40.0772 25.0001 38.747 23.656L37.1651 22.0431H39.2683C42.2883 22.0431 42.0906 22.4015 42.0906 16.9714C42.0906 12.9571 42.0546 12.5807 41.767 12.3119C41.4974 12.061 41.03 12.0073 39.2863 12.0073H37.1472L38.6571 10.5019C39.8076 9.35494 40.1671 8.88899 40.1671 8.51265C40.1671 8.10046 39.5739 7.41946 37.0213 4.9105C35.2777 3.17216 33.7497 1.79223 33.5699 1.79223C33.3902 1.79223 32.5813 2.43739 31.7723 3.22592C30.9634 4.01445 30.2444 4.65961 30.1725 4.65961C30.1006 4.65961 30.0466 3.74563 30.0466 2.63452C30.0466 0.878254 29.9927 0.555676 29.7231 0.304779C29.4355 0.0359612 28.8243 0.000118256 24.9774 0.000118256C20.9328 0.000118256 20.5553 0.0359612 20.2857 0.322701ZM28.0693 4.21158L28.1592 6.36211L28.9681 6.75638C30.2803 7.40154 30.532 7.32985 32.024 5.82448C32.761 5.08971 33.4441 4.4804 33.552 4.4804C33.7856 4.4804 37.5966 8.27967 37.5966 8.51265C37.5966 8.62017 36.9854 9.30117 36.2484 10.0359C34.7384 11.5234 34.6665 11.7743 35.3136 13.0825L35.7091 13.889L37.8662 13.9786L40.0233 14.0682L40.0772 16.9714L40.1132 19.8925H38.2257C37.1651 19.8925 36.1585 19.9822 35.9607 20.0718C35.5113 20.3227 34.9002 21.5234 34.9002 22.1685C34.9002 22.5449 35.2237 22.9929 36.2843 24.0502L37.6864 25.4481L35.5653 27.5449L33.4621 29.6596L32.042 28.2438C30.4421 26.6667 30.1904 26.5771 28.9321 27.2581L28.1592 27.6882L28.1052 29.8029L28.0513 31.8997H25.0134H21.9574V29.8746C21.9574 28.1542 21.9035 27.7958 21.6518 27.5628C21.2024 27.1864 19.9441 26.7384 19.6206 26.8459C19.4767 26.8818 18.7218 27.5449 17.9488 28.2975L16.5646 29.6596L14.4614 27.5449L12.3403 25.4481L13.7424 24.0502C14.803 22.9929 15.1266 22.5449 15.1266 22.1685C15.1266 21.5234 14.5154 20.3227 14.066 20.0718C13.8682 19.9822 12.8616 19.8925 11.801 19.8925H9.91352L9.94947 16.9714L10.0034 14.0682L12.1605 13.9786L14.3176 13.889L14.7311 13.0825C15.3782 11.7922 15.2883 11.5413 13.7784 10.0359C13.0413 9.30117 12.4302 8.62017 12.4302 8.51265C12.4302 8.29759 16.2231 4.4804 16.4568 4.4804C16.5467 4.4804 17.2477 5.08971 18.0207 5.82448C19.5487 7.31193 19.7823 7.38362 21.0586 6.75638L21.8676 6.36211L21.9215 4.39079C21.9395 3.2976 21.9934 2.31194 22.0473 2.1865C22.1012 2.00728 22.8203 1.97144 25.0493 2.00728L27.9794 2.06105L28.0693 4.21158ZM11.9268 34.7312C14.012 35.7527 15.4142 37.5628 15.8636 39.8387C16.295 41.9355 15.3602 44.6237 13.7065 46.0932C10.8123 48.6559 6.58795 48.5305 3.99941 45.7885C2.16586 43.8531 1.57265 41.4337 2.32764 38.9427C3.28037 35.914 6.06665 33.9606 9.32031 34.104C10.5067 34.1577 10.9921 34.2653 11.9268 34.7312ZM43.9061 34.7133C45.3083 35.3585 46.1891 36.1111 46.9081 37.2402C49.1192 40.699 47.8249 45.4122 44.1578 47.1864C39.9155 49.2652 35.026 46.7742 34.1631 42.0789C33.552 38.7276 35.799 35.233 39.1964 34.2832C40.5806 33.9069 42.5579 34.0861 43.9061 34.7133Z" fill="url(#paint0_linear_26_430)"/>
<path d="M22.1012 8.47679C15.8096 10.6273 13.9401 18.6201 18.6498 23.3513C22.1192 26.8459 27.7637 26.8638 31.3229 23.4051C34.6844 20.1255 34.9181 14.6596 31.8262 11.0753C30.8735 9.96424 29.2017 8.87105 27.7637 8.42303C26.0919 7.90331 23.7011 7.93916 22.1012 8.47679ZM27.9434 10.699C29.4354 11.3979 30.5679 12.5449 31.3409 14.1219C31.8802 15.2151 31.9341 15.4481 31.9341 17.0252C31.9341 18.5843 31.8802 18.8352 31.3409 19.9105C30.6039 21.4337 29.04 22.9212 27.5839 23.4947C26.1638 24.0682 23.9168 24.0682 22.4787 23.5126C21.0406 22.9391 19.4048 21.4158 18.7217 19.9821C17.4275 17.294 17.9308 14.3908 20.052 12.2223C21.5979 10.6273 23.0899 10.018 25.283 10.0897C26.4694 10.1435 26.9727 10.251 27.9434 10.699Z" fill="url(#paint1_linear_26_430)"/>
<path d="M23.4854 12.4195C23.018 12.6704 22.6226 13.0825 22.3709 13.6202C21.9035 14.5341 21.8496 15.1793 22.2091 16.0216C22.4608 16.6309 22.4608 16.6309 21.7957 17.1686C20.9508 17.8496 20.1778 19.2832 20.034 20.3943C19.9442 21.147 19.9981 21.3442 20.3216 21.6667C20.6812 22.0252 20.8609 22.0431 24.9774 22.0431C30.1006 22.0431 30.1545 22.0252 29.9927 20.5198C29.8669 19.3012 29.1479 17.9033 28.285 17.2044L27.584 16.6488L27.8536 15.8962C28.7704 13.3514 25.9122 11.0575 23.4854 12.4195ZM25.5167 14.2653C26.4874 14.9284 25.6425 16.2904 24.564 15.8065C23.9708 15.5377 23.9348 14.6596 24.5101 14.2653C24.7258 14.104 24.9595 13.9786 25.0134 13.9786C25.0673 13.9786 25.301 14.104 25.5167 14.2653ZM26.3796 18.3872C26.9188 18.6381 27.7098 19.4804 27.7098 19.785C27.7098 19.8388 26.5054 19.8926 25.0134 19.8926C23.4854 19.8926 22.317 19.8209 22.317 19.7313C22.317 19.4804 23.3955 18.4409 23.827 18.2797C24.4561 18.0288 25.7324 18.0825 26.3796 18.3872Z" fill="url(#paint2_linear_26_430)"/>
<path d="M7.93617 36.147C6.44416 36.7026 5.61726 38.5305 6.15654 40.0359C6.3363 40.5556 6.30035 40.6452 5.45548 41.5054C4.52073 42.4732 3.98145 43.6739 3.98145 44.8029C3.98145 46.0395 4.0893 46.0574 8.97877 46.0574C13.1672 46.0574 13.3469 46.0395 13.7065 45.681C14.03 45.3584 14.066 45.1613 13.9761 44.4624C13.8143 43.2975 13.0593 41.8459 12.2684 41.2008L11.5853 40.6631L11.8549 39.8567C12.0706 39.2115 12.0706 38.9248 11.9089 38.2975C11.6392 37.3477 11.4235 37.0789 10.5607 36.4875C9.87757 36.0395 8.67318 35.8782 7.93617 36.147ZM9.58996 38.2975C10.2011 38.8531 9.82365 39.9642 8.99675 39.9642C8.5833 39.9642 7.93617 39.3549 7.93617 38.9785C7.93617 38.6201 8.5833 37.9929 8.9608 37.9929C9.12258 37.9929 9.4102 38.1183 9.58996 38.2975ZM10.2011 42.3119C10.6326 42.4552 11.7111 43.4947 11.7111 43.7455C11.7111 43.8352 10.5427 43.9068 9.01473 43.9068C7.54069 43.9068 6.31833 43.8352 6.31833 43.7455C6.31833 43.4947 7.03737 42.6703 7.45081 42.4373C8.33164 41.9714 9.17651 41.9355 10.2011 42.3119Z" fill="url(#paint3_linear_26_430)"/>
<path d="M39.5739 36.3979C38.2976 37.1327 37.7224 38.5843 38.1898 39.9104L38.4414 40.6631L37.7583 41.2008C36.9674 41.8459 36.2124 43.2975 36.0506 44.4624C35.9607 45.1613 35.9967 45.3584 36.3202 45.681C36.6798 46.0395 36.8595 46.0574 41.0659 46.0574C45.2184 46.0574 45.47 46.0395 45.7756 45.699C46.0273 45.4122 46.0812 45.1613 45.9913 44.3549C45.8655 43.19 45.2723 42.061 44.3375 41.2545C43.7084 40.699 43.7084 40.681 43.9061 39.9104C44.6252 37.276 41.8928 35.0538 39.5739 36.3979ZM41.731 38.3513C41.9288 38.5484 42.0905 38.8172 42.0905 38.9427C42.0905 39.3728 41.5333 39.9642 41.1019 39.9642C40.221 39.9642 39.8076 38.9785 40.4188 38.3155C40.7963 37.8853 41.2816 37.9033 41.731 38.3513ZM42.486 42.4015C42.9534 42.6524 43.7084 43.4588 43.7084 43.7456C43.7084 43.8352 42.504 43.9068 41.012 43.9068C39.538 43.9068 38.3156 43.8352 38.3156 43.7635C38.3156 43.4409 39.6099 42.2939 40.0772 42.1864C40.3469 42.1327 40.6525 42.061 40.7423 42.0251C41.03 41.9534 41.9647 42.1506 42.486 42.4015Z" fill="url(#paint4_linear_26_430)"/>
<defs>
<linearGradient id="paint0_linear_26_430" x1="25" y1="50.0001" x2="25" y2="0.00012207" gradientUnits="userSpaceOnUse">
<stop stop-color="#CB328F"/>
<stop offset="0.2" stop-color="#CB328F"/>
<stop offset="0.4" stop-color="#97238A"/>
<stop offset="0.6" stop-color="#5456AB"/>
<stop offset="0.8" stop-color="#219DDE"/>
<stop offset="1" stop-color="#22DCD9"/>
</linearGradient>
<linearGradient id="paint1_linear_26_430" x1="25.0075" y1="25.9858" x2="25.0075" y2="8.05269" gradientUnits="userSpaceOnUse">
<stop stop-color="#CB328F"/>
<stop offset="0.2" stop-color="#CB328F"/>
<stop offset="0.4" stop-color="#97238A"/>
<stop offset="0.6" stop-color="#5456AB"/>
<stop offset="0.8" stop-color="#219DDE"/>
<stop offset="1" stop-color="#22DCD9"/>
</linearGradient>
<linearGradient id="paint2_linear_26_430" x1="25.0149" y1="22.0431" x2="25.0149" y2="12.0134" gradientUnits="userSpaceOnUse">
<stop stop-color="#CB328F"/>
<stop offset="0.2" stop-color="#CB328F"/>
<stop offset="0.4" stop-color="#97238A"/>
<stop offset="0.6" stop-color="#5456AB"/>
<stop offset="0.8" stop-color="#219DDE"/>
<stop offset="1" stop-color="#22DCD9"/>
</linearGradient>
<linearGradient id="paint3_linear_26_430" x1="9.00005" y1="46.0574" x2="9.00005" y2="36.0162" gradientUnits="userSpaceOnUse">
<stop stop-color="#CB328F"/>
<stop offset="0.2" stop-color="#CB328F"/>
<stop offset="0.4" stop-color="#97238A"/>
<stop offset="0.6" stop-color="#5456AB"/>
<stop offset="0.8" stop-color="#219DDE"/>
<stop offset="1" stop-color="#22DCD9"/>
</linearGradient>
<linearGradient id="paint4_linear_26_430" x1="41.02" y1="46.0574" x2="41.02" y2="35.9937" gradientUnits="userSpaceOnUse">
<stop stop-color="#CB328F"/>
<stop offset="0.2" stop-color="#CB328F"/>
<stop offset="0.4" stop-color="#97238A"/>
<stop offset="0.6" stop-color="#5456AB"/>
<stop offset="0.8" stop-color="#219DDE"/>
<stop offset="1" stop-color="#22DCD9"/>
</linearGradient>
</defs>
</svg>
